<svg width="57" height="50" viewBox="0 0 57 50" fill="none" xmlns="http://www.w3.org/2000/svg">
<path fill-rule="evenodd" clip-rule="evenodd" d="M28.4964 1.58526e-06C29.0629 -0.000616125 29.615 0.179304 30.0728 0.513776C30.5307 0.848249 30.8707 1.31996 31.0436 1.86079L42.75 38.5373L47.3314 24.1867C47.5035 23.6458 47.8427 23.1737 48.2999 22.8386C48.7571 22.5035 49.3087 22.3227 49.875 22.3223H54.3281C55.0368 22.3223 55.7164 22.6046 56.2174 23.1069C56.7185 23.6093 57 24.2906 57 25.001C57 25.7115 56.7185 26.3928 56.2174 26.8951C55.7164 27.3975 55.0368 27.6797 54.3281 27.6797H51.8237L45.2936 48.1413C45.1205 48.6811 44.7809 49.152 44.3238 49.486C43.8667 49.82 43.3156 50 42.75 50C42.1844 50 41.6333 49.82 41.1762 49.486C40.7191 49.152 40.3795 48.6811 40.2064 48.1413L28.5178 11.5219L20.3597 37.4158C20.1914 37.9494 19.8606 38.4167 19.4138 38.7522C18.967 39.0876 18.4267 39.2744 17.8686 39.2862C17.3105 39.298 16.7628 39.1343 16.3023 38.8181C15.8417 38.5018 15.4916 38.0489 15.3009 37.523L10.7979 25.1082L10.5486 25.8511C10.3714 26.3842 10.0315 26.8481 9.57695 27.1769C9.12238 27.5057 8.57617 27.6829 8.01562 27.6833H2.67188C1.96325 27.6833 1.28365 27.4011 0.782574 26.8987C0.2815 26.3964 0 25.715 0 25.0046C0 24.2942 0.2815 23.6128 0.782574 23.1105C1.28365 22.6081 1.96325 22.3259 2.67188 22.3259H6.09188L8.151 16.1221C8.32556 15.5937 8.65998 15.1329 9.10778 14.8038C9.55558 14.4747 10.0945 14.2937 10.6497 14.2858C11.2048 14.278 11.7487 14.4437 12.2056 14.76C12.6624 15.0763 13.0097 15.5274 13.1991 16.0507L17.6344 28.2833L25.9528 1.87508C26.1231 1.33216 26.4615 0.857741 26.9188 0.520595C27.3762 0.183449 27.9288 0.00110558 28.4964 1.58526e-06Z" fill="white"/>
</svg>
