<svg width="22" height="20" viewBox="0 0 22 20" fill="none" xmlns="http://www.w3.org/2000/svg">
<path d="M2.75 7.97846C2.75 4.57115 2.75 2.86704 3.922 1.80897C5.094 0.750903 6.979 0.75 10.75 0.75C14.521 0.75 16.407 0.75 17.578 1.80897C18.749 2.86794 18.75 4.57115 18.75 7.97846V9.78558C18.75 13.1929 18.75 14.897 17.578 15.9551C16.406 17.0131 14.521 17.014 10.75 17.014C6.979 17.014 5.093 17.014 3.922 15.9551C2.751 14.8961 2.75 13.1929 2.75 9.78558V7.97846Z" stroke="#BDD68F" stroke-width="1.5"/>
<path d="M14.25 13.3989H15.75M5.75 13.3989H7.25M4.75 16.5613V17.9167C4.75 18.1563 4.85536 18.3861 5.04289 18.5556C5.23043 18.725 5.48478 18.8202 5.75 18.8202H7.25C7.51522 18.8202 7.76957 18.725 7.95711 18.5556C8.14464 18.3861 8.25 18.1563 8.25 17.9167V17.0131M16.75 16.5613V17.9167C16.75 18.1563 16.6446 18.3861 16.4571 18.5556C16.2696 18.725 16.0152 18.8202 15.75 18.8202H14.25C13.9848 18.8202 13.7304 18.725 13.5429 18.5556C13.3554 18.3861 13.25 18.1563 13.25 17.9167V17.0131M18.75 7.07397H19.75C20.0152 7.07397 20.2696 7.16917 20.4571 7.33862C20.6446 7.50807 20.75 7.73789 20.75 7.97753V8.88109C20.75 9.02136 20.7139 9.15971 20.6444 9.28517C20.575 9.41064 20.4742 9.51977 20.35 9.60394L18.75 10.6882H2.75L1.15 9.60394C1.0258 9.51977 0.925 9.41064 0.855573 9.28517C0.786145 9.15971 0.75 9.02136 0.75 8.88109V7.97753C0.75 7.73789 0.855357 7.50807 1.04289 7.33862C1.23043 7.16917 1.48478 7.07397 1.75 7.07397H2.75" stroke="#BDD68F" stroke-width="1.5" stroke-linecap="round" stroke-linejoin="round"/>
<path d="M18.25 3.46216H3.25" stroke="#BDD68F" stroke-width="1.5" stroke-linecap="round"/>
</svg>
