<svg width="57" height="57" viewBox="0 0 57 57" fill="none" xmlns="http://www.w3.org/2000/svg">
<path d="M28.5002 44.4007V9.95042M28.5002 9.95042C28.5002 8.73095 28.7807 7.5278 29.32 6.43407C29.8593 5.34034 30.643 4.38534 31.6105 3.64295C32.5779 2.90057 33.7032 2.39069 34.8993 2.15277C36.0953 1.91485 37.33 1.95527 38.508 2.2709C39.6859 2.58653 40.7754 3.1689 41.6922 3.97297C42.6091 4.77704 43.3287 5.78125 43.7953 6.90791C44.2619 8.03457 44.4631 9.25348 44.3833 10.4703C44.3035 11.6872 43.9449 12.8694 43.3351 13.9255M28.5002 9.95042C28.5003 8.73095 28.2198 7.5278 27.6805 6.43407C27.1412 5.34034 26.3575 4.38534 25.39 3.64295C24.4225 2.90057 23.2973 2.39069 22.1012 2.15277C20.9052 1.91485 19.6704 1.95527 18.4925 2.2709C17.3146 2.58653 16.2251 3.1689 15.3082 3.97297C14.3914 4.77704 13.6718 5.78125 13.2052 6.90791C12.7385 8.03457 12.5373 9.25348 12.6171 10.4703C12.6969 11.6872 13.0556 12.8694 13.6654 13.9255M36.4503 31.1506C34.1575 30.4804 32.1436 29.0853 30.7104 27.1742C29.2771 25.2632 28.5017 22.9393 28.5002 20.5505C28.4988 22.9393 27.7234 25.2632 26.2901 27.1742C24.8569 29.0853 22.843 30.4804 20.5502 31.1506" stroke="#3A7D95" stroke-width="4" stroke-linecap="round" stroke-linejoin="round"/>
<path d="M44.3926 10.2814C45.9503 10.6819 47.3964 11.4316 48.6214 12.4738C49.8464 13.5159 50.8183 14.8232 51.4633 16.2965C52.1083 17.7699 52.4095 19.3707 52.3443 20.9777C52.279 22.5847 51.8489 24.1558 51.0865 25.572" stroke="#3A7D95" stroke-width="4" stroke-linecap="round" stroke-linejoin="round"/>
<path d="M44.4004 44.3982C46.7337 44.3981 49.0019 43.6281 50.853 42.2076C52.7042 40.7871 54.0349 38.7955 54.6388 36.5416C55.2427 34.2878 55.0861 31.8976 54.1932 29.7419C53.3004 27.5861 51.7211 25.7852 49.7004 24.6184" stroke="#3A7D95" stroke-width="4" stroke-linecap="round" stroke-linejoin="round"/>
<path d="M49.6127 43.0339C49.7984 44.4709 49.6876 45.9306 49.2871 47.3231C48.8865 48.7155 48.2048 50.011 47.2839 51.1296C46.3631 52.2483 45.2227 53.1662 43.9331 53.8268C42.6436 54.4875 41.2323 54.8767 39.7865 54.9705C38.3406 55.0644 36.8909 54.8608 35.5268 54.3724C34.1627 53.8839 32.9133 53.1211 31.8556 52.1308C30.7978 51.1406 29.9544 49.944 29.3772 48.6151C28.8001 47.2861 28.5015 45.8529 28.5 44.404C28.4984 45.8529 28.1999 47.2861 27.6227 48.6151C27.0456 49.944 26.2021 51.1406 25.1444 52.1308C24.0867 53.1211 22.8372 53.8839 21.4731 54.3724C20.1091 54.8608 18.6593 55.0644 17.2135 54.9705C15.7676 54.8767 14.3564 54.4875 13.0668 53.8268C11.7773 53.1662 10.6369 52.2483 9.71605 51.1296C8.7952 50.011 8.11345 48.7155 7.7129 47.3231C7.31236 45.9306 7.20153 44.4709 7.38725 43.0339" stroke="#3A7D95" stroke-width="4" stroke-linecap="round" stroke-linejoin="round"/>
<path d="M12.5996 44.3982C10.2663 44.3981 7.99815 43.6281 6.147 42.2076C4.29585 40.7871 2.96513 38.7955 2.3612 36.5416C1.75728 34.2878 1.9139 31.8976 2.80678 29.7419C3.69966 27.5861 5.2789 25.7852 7.29958 24.6184" stroke="#3A7D95" stroke-width="4" stroke-linecap="round" stroke-linejoin="round"/>
<path d="M12.6079 10.2814C11.0502 10.6819 9.60409 11.4316 8.37906 12.4738C7.15403 13.5159 6.18221 14.8232 5.53721 16.2965C4.8922 17.7699 4.59093 19.3707 4.65619 20.9777C4.72146 22.5847 5.15156 24.1558 5.91392 25.572" stroke="#3A7D95" stroke-width="4" stroke-linecap="round" stroke-linejoin="round"/>
</svg>
