<svg width="60" height="60" viewBox="0 0 60 60" fill="none" xmlns="http://www.w3.org/2000/svg">
<path d="M19.1594 13.776C18.5848 13.2012 18.262 12.4217 18.262 11.6089C18.262 10.7962 18.5848 10.0167 19.1594 9.44186L27.6136 0.988106C27.9268 0.674848 28.2985 0.426349 28.7077 0.256806C29.1169 0.087264 29.5555 0 29.9985 0C30.4414 0 30.88 0.087264 31.2892 0.256806C31.6984 0.426349 32.0702 0.674848 32.3833 0.988106L40.8344 9.44186C41.1272 9.72462 41.3607 10.0628 41.5214 10.4368C41.682 10.8108 41.7666 11.213 41.7701 11.62C41.7737 12.027 41.6961 12.4306 41.542 12.8073C41.3878 13.184 41.1602 13.5262 40.8724 13.814C40.5846 14.1018 40.2424 14.3294 39.8656 14.4835C39.4889 14.6377 39.0853 14.7152 38.6783 14.7117C38.2712 14.7081 37.869 14.6236 37.495 14.4629C37.121 14.3023 36.7828 14.0688 36.5 13.776L33.0638 10.34V26.9348H49.6595L46.2233 23.4988C45.6481 22.924 45.3248 22.1443 45.3245 21.3312C45.3242 20.5181 45.647 19.7382 46.2217 19.1631C46.7965 18.5879 47.5762 18.2646 48.3894 18.2644C49.2025 18.2641 49.9825 18.5868 50.5577 19.1615L59.0118 27.6153C59.3251 27.9284 59.5736 28.3002 59.7432 28.7093C59.9127 29.1185 60 29.5571 60 30C60 30.4429 59.9127 30.8815 59.7432 31.2907C59.5736 31.6998 59.3251 32.0716 59.0118 32.3847L50.5577 40.8385C49.9825 41.4132 49.2025 41.7359 48.3894 41.7357C47.5762 41.7354 46.7965 41.4121 46.2217 40.8369C45.647 40.2618 45.3242 39.4819 45.3245 38.6688C45.3248 37.8557 45.6481 37.076 46.2233 36.5012L49.6595 33.0652H33.0638V49.66L36.5 46.224C37.0782 45.6656 37.8525 45.3567 38.6562 45.3637C39.4599 45.3706 40.2287 45.693 40.7971 46.2613C41.3654 46.8296 41.6878 47.5984 41.6948 48.4021C41.7018 49.2058 41.3928 49.98 40.8344 50.5581L32.3833 59.0119C32.0702 59.3252 31.6984 59.5737 31.2892 59.7432C30.88 59.9127 30.4414 60 29.9985 60C29.5555 60 29.1169 59.9127 28.7077 59.7432C28.2985 59.5737 27.9268 59.3252 27.6136 59.0119L19.1594 50.5581C18.8748 50.2734 18.6491 49.9353 18.4952 49.5633C18.3412 49.1913 18.2621 48.7926 18.2622 48.39C18.2624 47.9874 18.3418 47.5887 18.496 47.2168C18.6502 46.8449 18.8762 46.507 19.161 46.2224C19.4458 45.9379 19.7838 45.7122 20.1559 45.5582C20.5279 45.4043 20.9266 45.3251 21.3293 45.3253C21.7319 45.3254 22.1305 45.4048 22.5025 45.559C22.8744 45.7132 23.2123 45.9392 23.4969 46.224L26.9301 49.66V33.0652H10.3405L13.7767 36.5012C14.0615 36.7858 14.2875 37.1237 14.4417 37.4956C14.5959 37.8675 14.6753 38.2662 14.6755 38.6688C14.6756 39.0714 14.5965 39.4701 14.4425 39.8421C14.2886 40.2141 14.0629 40.5521 13.7783 40.8369C13.4937 41.1217 13.1557 41.3477 12.7838 41.5019C12.4119 41.6561 12.0132 41.7355 11.6106 41.7357C11.208 41.7358 10.8093 41.6566 10.4372 41.5027C10.0652 41.3488 9.72715 41.1231 9.44234 40.8385L0.988156 32.3847C0.674882 32.0716 0.42637 31.6998 0.256819 31.2907C0.0872677 30.8815 0 30.4429 0 30C0 29.5571 0.0872677 29.1185 0.256819 28.7093C0.42637 28.3002 0.674882 27.9284 0.988156 27.6153L9.44234 19.1615C10.0179 18.5872 10.7981 18.265 11.6113 18.2659C12.4244 18.2667 13.2039 18.5906 13.7783 19.1661C14.3526 19.7417 14.6748 20.5218 14.674 21.3349C14.6731 22.148 14.3492 22.9275 13.7737 23.5018L10.3374 26.9348H26.9331V10.343L23.4969 13.776C23.2122 14.061 22.8741 14.2871 22.502 14.4413C22.1299 14.5956 21.731 14.675 21.3282 14.675C20.9253 14.675 20.5265 14.5956 20.1543 14.4413C19.7822 14.2871 19.4441 14.061 19.1594 13.776Z" fill="#BDD68F"/>
</svg>
