<svg width="22" height="16" viewBox="0 0 22 16" fill="none" xmlns="http://www.w3.org/2000/svg">
<path d="M18 11.8565H20C20.6 11.8565 21 11.4222 21 10.7708V7.51387C21 6.53679 20.3 5.66828 19.5 5.45115C17.7 4.90832 15 4.25694 15 4.25694C15 4.25694 13.7 2.73703 12.8 1.75995C12.3 1.32569 11.7 1 11 1H4C3.4 1 2.9 1.43426 2.6 1.97708L1.2 5.12545C1.06758 5.54476 1 5.98496 1 6.42823V10.7708C1 11.4222 1.4 11.8565 2 11.8565H4" stroke="#BDD68F" stroke-width="2" stroke-linecap="round" stroke-linejoin="round"/>
<path d="M6 14.0274C7.10457 14.0274 8 13.0553 8 11.8561C8 10.6569 7.10457 9.68481 6 9.68481C4.89543 9.68481 4 10.6569 4 11.8561C4 13.0553 4.89543 14.0274 6 14.0274Z" stroke="#BDD68F" stroke-width="2" stroke-linecap="round" stroke-linejoin="round"/>
<path d="M8 11.8572H14" stroke="#BDD68F" stroke-width="2" stroke-linecap="round" stroke-linejoin="round"/>
<path d="M16 14.0274C17.1046 14.0274 18 13.0553 18 11.8561C18 10.6569 17.1046 9.68481 16 9.68481C14.8954 9.68481 14 10.6569 14 11.8561C14 13.0553 14.8954 14.0274 16 14.0274Z" stroke="#BDD68F" stroke-width="2" stroke-linecap="round" stroke-linejoin="round"/>
</svg>
